<svg width="512" height="512" viewBox="0 0 512 512" fill="none" xmlns="http://www.w3.org/2000/svg">
<path d="M512 258.209C511.997 200.395 490.71 144.605 452.199 101.484C413.688 58.3629 360.65 30.9296 303.203 24.418C355.036 37.7861 400.956 68.0029 433.742 110.317C466.527 152.631 484.319 204.642 484.319 258.171C484.319 311.7 466.527 363.711 433.742 406.025C400.956 448.34 355.036 478.556 303.203 491.924C360.639 485.42 413.67 457.999 452.18 414.892C490.69 371.786 511.984 316.012 512 258.209Z" fill="url(#paint0_linear_472_23)"/>
<path d="M247.538 21.3266C243.418 21.1256 239.298 21 235.154 21C229.351 21 223.623 21.2763 217.921 21.7034C215.409 21.8792 212.772 22.055 210.209 22.3314C152.478 28.5279 99.0749 55.8493 60.2706 99.0415C21.4662 142.234 0 198.247 0 256.311C0 314.374 21.4662 370.388 60.2706 413.58C99.0749 456.772 152.478 484.094 210.209 490.29C212.721 490.566 215.233 490.742 217.921 490.918L247.538 491.295C307.676 488.063 364.287 461.896 405.714 418.183C447.141 374.469 470.232 316.536 470.232 256.311C470.232 196.085 447.141 138.152 405.714 94.4386C364.287 50.7251 307.676 24.5586 247.538 21.3266ZM235.154 431.208C200.559 431.213 166.739 420.959 137.972 401.743C109.205 382.526 86.7823 355.211 73.54 323.251C60.2976 291.29 56.8302 256.121 63.5763 222.19C70.3224 188.259 86.979 157.091 111.44 132.627C135.9 108.163 167.066 91.5019 200.996 84.7509C234.926 77.9999 270.096 81.4623 302.058 94.7001C334.02 107.938 361.338 130.356 380.559 159.121C399.779 187.885 410.038 221.703 410.038 256.298C409.992 302.669 391.552 347.127 358.766 379.918C325.979 412.709 281.524 431.155 235.154 431.208Z" fill="url(#paint1_linear_472_23)"/>
<path d="M233.336 97.543C201.598 97.5628 170.579 106.992 144.199 124.639C117.82 142.286 97.265 167.359 85.1332 196.686C73.0014 226.014 69.8375 258.28 76.0414 289.406C82.2454 320.531 97.5385 349.119 119.988 371.554C142.437 393.989 171.034 409.264 202.163 415.449C233.293 421.633 265.557 418.449 294.877 406.299C324.197 394.149 349.256 373.578 366.887 347.188C384.517 320.797 393.927 289.772 393.927 258.034C393.854 215.474 376.908 174.68 346.804 144.595C316.701 114.51 275.896 97.5895 233.336 97.543ZM216.079 230.251C219.057 233.148 222.584 235.42 226.453 236.933C230.623 238.641 236.3 240.551 243.535 242.711C251.737 245.176 259.781 248.138 267.625 251.578C273.84 254.454 279.288 258.758 283.525 264.138C288.116 270.272 290.434 277.811 290.082 285.465C290.283 295.346 287.47 305.054 282.018 313.298C276.443 321.37 268.751 327.749 259.787 331.736C249.646 336.259 238.709 338.727 227.609 338.996L221.153 371.275H198.545L205.001 337.137C196.024 335.473 187.334 332.52 179.203 328.37C171.366 324.412 164.148 319.335 157.775 313.298L173.224 287.022C180.662 294.305 189.372 300.163 198.922 304.305C207.577 308.372 216.992 310.571 226.554 310.761C235.798 310.761 243.007 309.027 248.232 305.586C250.711 304.05 252.741 301.887 254.117 299.316C255.493 296.745 256.167 293.856 256.069 290.941C256.118 289.07 255.774 287.209 255.06 285.478C254.347 283.748 253.278 282.186 251.925 280.893C248.937 278.063 245.408 275.867 241.55 274.437C237.405 272.83 231.628 270.87 224.268 268.559C215.977 266.243 207.847 263.39 199.926 260.018C193.715 257.332 188.23 253.208 183.925 247.986C179.35 241.978 177.029 234.555 177.369 227.011C177.185 217.726 179.812 208.602 184.905 200.836C190.214 193.007 197.539 186.759 206.106 182.75C215.916 178.1 226.601 175.582 237.456 175.364L243.208 144.718H266.042L259.812 176.545C273.943 178.808 287.4 184.161 299.225 192.22L284.153 218.947C276.556 214.008 268.337 210.097 259.712 207.317C252.508 204.842 244.969 203.478 237.355 203.273C230.844 202.95 224.374 204.474 218.691 207.669C216.826 208.814 215.243 210.364 214.059 212.205C212.876 214.046 212.122 216.129 211.854 218.301C211.586 220.473 211.811 222.678 212.512 224.751C213.213 226.824 214.372 228.713 215.903 230.277L216.079 230.251Z" fill="url(#paint2_linear_472_23)"/>
<path d="M235.139 462.127C348.901 462.127 441.123 369.905 441.123 256.143C441.123 142.382 348.901 50.1602 235.139 50.1602C121.378 50.1602 29.1562 142.382 29.1562 256.143C29.1562 369.905 121.378 462.127 235.139 462.127Z" stroke="#FCFCFC" stroke-miterlimit="10"/>
<defs>
<linearGradient id="paint0_linear_472_23" x1="39.2181" y1="-41.9488" x2="490.095" y2="408.928" gradientUnits="userSpaceOnUse">
<stop stop-color="#FDC32D"/>
<stop offset="1" stop-color="#EB6617"/>
</linearGradient>
<linearGradient id="paint1_linear_472_23" x1="48.588" y1="69.7075" x2="499.465" y2="520.585" gradientUnits="userSpaceOnUse">
<stop stop-color="#FDC32D"/>
<stop offset="0.56" stop-color="#F28C20"/>
<stop offset="1" stop-color="#EB6617"/>
</linearGradient>
<linearGradient id="paint2_linear_472_23" x1="46.7705" y1="71.4685" x2="497.648" y2="522.346" gradientUnits="userSpaceOnUse">
<stop stop-color="#F2FF36"/>
<stop offset="0.72" stop-color="#00B56A"/>
</linearGradient>
</defs>
</svg>
