<svg width="393" height="120" viewBox="0 0 393 120" fill="none" xmlns="http://www.w3.org/2000/svg">
<g clip-path="url(#clip0_471_5)">
<path d="M130.507 60.4422C130.507 45.7109 125.082 31.4953 115.27 20.5079C105.457 9.52044 91.9424 2.53028 77.3047 0.871094C90.512 4.27736 102.213 11.9768 110.567 22.7586C118.92 33.5405 123.454 46.7931 123.454 60.4326C123.454 74.0722 118.92 87.3248 110.567 98.1067C102.213 108.889 90.512 116.588 77.3047 119.994C91.9396 118.337 105.452 111.35 115.265 100.366C125.077 89.3824 130.503 75.1707 130.507 60.4422Z" fill="url(#paint0_linear_471_5)"/>
<path d="M63.1208 0.083212C62.071 0.0320065 61.0213 0 59.9652 0C58.4867 0 57.0273 0.0704067 55.5743 0.179218C54.9343 0.224023 54.2622 0.268828 53.6093 0.339235C38.899 1.91815 25.2917 8.87977 15.4041 19.8854C5.51657 30.891 0.046875 45.1636 0.046875 59.9584C0.046875 74.7532 5.51657 89.0258 15.4041 100.031C25.2917 111.037 38.899 117.999 53.6093 119.578C54.2494 119.648 54.8895 119.693 55.5743 119.738L63.1208 119.834C78.4444 119.01 92.869 112.343 103.425 101.204C113.981 90.0658 119.864 75.3041 119.864 59.9584C119.864 44.6127 113.981 29.851 103.425 18.7125C92.869 7.57411 78.4444 0.906761 63.1208 0.083212ZM59.9652 104.523C51.1502 104.524 42.5329 101.912 35.2028 97.0152C27.8728 92.1188 22.1595 85.1587 18.7852 77.015C15.411 68.8714 14.5275 59.9101 16.2464 51.2643C17.9654 42.6186 22.2096 34.6767 28.4423 28.4432C34.6749 22.2096 42.6162 17.9643 51.2617 16.2441C59.9072 14.5239 68.8687 15.4061 77.0128 18.7792C85.1569 22.1522 92.1178 27.8646 97.0153 35.1939C101.913 42.5232 104.527 51.1402 104.527 59.9552C104.515 71.7706 99.8165 83.0988 91.4623 91.4541C83.1081 99.8095 71.7806 104.51 59.9652 104.523Z" fill="url(#paint1_linear_471_5)"/>
<path d="M59.5012 19.5039C51.4142 19.509 43.5103 21.9117 36.7887 26.4082C30.0671 30.9048 24.8296 37.2933 21.7384 44.7662C18.6471 52.239 17.8409 60.4606 19.4217 68.3916C21.0025 76.3225 24.8993 83.6067 30.6194 89.3233C36.3396 95.0399 43.6262 98.9321 51.5582 100.508C59.4901 102.084 67.7112 101.272 75.1821 98.1765C82.653 95.0806 89.0383 89.8391 93.5306 83.1147C98.023 76.3902 100.421 68.4848 100.421 60.3979C100.402 49.5534 96.0842 39.1588 88.4135 31.493C80.7429 23.8272 70.3457 19.5158 59.5012 19.5039ZM55.1039 53.3187C55.8628 54.0567 56.7616 54.6356 57.7474 55.0213C58.8099 55.4565 60.2565 55.943 62.0999 56.4934C64.1898 57.1217 66.2397 57.8762 68.2381 58.7529C69.8218 59.4857 71.2101 60.5823 72.2897 61.9532C73.4595 63.5163 74.0501 65.4372 73.9603 67.3874C74.0116 69.9052 73.295 72.3789 71.9057 74.4794C70.4851 76.5362 68.5251 78.1617 66.2411 79.1775C63.6572 80.3301 60.8703 80.9588 58.0418 81.0273L56.3969 89.2521H50.6362L52.2812 80.5536C49.9938 80.1298 47.7797 79.3774 45.7077 78.3198C43.711 77.3114 41.8718 76.0177 40.2479 74.4794L44.1843 67.7843C46.0796 69.6399 48.2989 71.1325 50.7322 72.1879C52.9377 73.2242 55.3367 73.7847 57.773 73.8329C60.1284 73.8329 61.9654 73.3913 63.2968 72.5144C63.9284 72.123 64.4457 71.5719 64.7963 70.9167C65.1469 70.2615 65.3185 69.5255 65.2938 68.7828C65.3062 68.3059 65.2186 67.8318 65.0367 67.3909C64.8548 66.9499 64.5826 66.5519 64.2377 66.2225C63.4765 65.5014 62.5773 64.9419 61.5942 64.5775C60.5381 64.1679 59.0659 63.6686 57.1905 63.0798C55.0781 62.4895 53.0064 61.7625 50.9883 60.9035C49.4055 60.2191 48.008 59.1682 46.911 57.8376C45.7452 56.3068 45.154 54.4152 45.2405 52.493C45.1937 50.1271 45.863 47.8023 47.1607 45.8235C48.5134 43.8288 50.3799 42.2365 52.5629 41.215C55.0626 40.0301 57.7851 39.3888 60.5509 39.3332L62.0167 31.5244H67.8349L66.2475 39.6341C69.848 40.2108 73.277 41.5745 76.2902 43.6281L72.4498 50.4384C70.5138 49.1798 68.4197 48.1833 66.2219 47.4749C64.3863 46.8442 62.4655 46.4967 60.5253 46.4444C58.8662 46.3621 57.2176 46.7504 55.7696 47.5645C55.2944 47.8563 54.891 48.2513 54.5894 48.7204C54.2878 49.1894 54.0958 49.7203 54.0275 50.2738C53.9593 50.8272 54.0166 51.3889 54.1952 51.9171C54.3737 52.4454 54.669 52.9266 55.0591 53.3251L55.1039 53.3187Z" fill="url(#paint2_linear_471_5)"/>
<path d="M59.9622 112.401C88.9492 112.401 112.448 88.9023 112.448 59.9153C112.448 30.9283 88.9492 7.42969 59.9622 7.42969C30.9752 7.42969 7.47656 30.9283 7.47656 59.9153C7.47656 88.9023 30.9752 112.401 59.9622 112.401Z" stroke="#FCFCFC" stroke-miterlimit="10"/>
<path d="M147.711 81.9743L174.933 46.3161L174.773 46.0729H152.908L154.291 34.4492H192.804L191.665 44.3639L163.879 80.2077L164.039 80.5277H187.114L185.738 92.1514H146.508L147.711 81.9743Z" fill="#00B56A"/>
<path d="M193.055 76.6111C193.055 62.472 201.427 51.6484 211.828 51.6484C215.969 51.6484 219.061 52.9286 221.173 55.1432H221.397L221.723 52.3781H233.993L229.116 92.1135H216.865L217.595 86.2633L217.352 86.1801C214.427 90.4046 210.445 92.8432 205.978 92.8432C197.446 92.8624 193.055 85.7961 193.055 76.6111ZM220.36 66.5364L220.52 65.3971C219.68 64.4939 218.661 63.7751 217.528 63.2859C216.396 62.7967 215.174 62.5479 213.94 62.5552C208.576 62.5552 205.325 69.788 205.325 75.715C205.325 79.5554 207.111 82.0581 209.876 82.0581C214.1 82.0581 218.977 76.5279 220.36 66.5364Z" fill="#00B56A"/>
<path d="M243.034 52.3964H255.195L250.318 92.1318H238.156L243.034 52.3964ZM243.277 40.2863C243.277 36.145 246.362 33.1367 250.83 33.1367C255.297 33.1367 258.146 36.0618 258.146 40.0431C258.146 44.1907 255.054 47.2758 250.586 47.2758C246.279 47.2758 243.277 44.2675 243.277 40.2863Z" fill="#00B56A"/>
<path d="M264.564 52.3952H276.725L276.085 57.3493L276.412 57.4325C279.746 53.6945 283.888 51.6719 288.522 51.6719C293.156 51.6719 295.998 53.5409 297.131 57.6821H297.566C300.978 53.7009 305.368 51.6719 310.892 51.6719C318.771 51.6719 321.62 56.8692 320.154 68.3137L316.986 92.1242H304.869L307.711 70.5923C308.441 65.0621 308.037 62.5466 305.516 62.5466C302.751 62.5466 297.553 67.424 296.254 77.4986L294.302 92.1242H282.204L285.046 70.5923C285.776 65.0621 285.616 62.5466 282.851 62.5466C280.086 62.5466 274.888 67.3407 273.749 76.6281L271.88 92.1498H259.719L264.564 52.3952Z" fill="#00B56A"/>
<path d="M337.771 77.7497C338.501 81.3212 341.1 82.787 343.462 82.787C346.137 82.787 348.499 81.7309 350.688 78.8058L359.79 84.1696C355.565 89.9302 350.285 92.8617 342.508 92.8617C332.516 92.8617 325.866 86.525 325.93 76.2199C325.93 62.7273 334.302 51.6797 347.692 51.6797C354.093 51.6797 361.339 55.1745 361.262 62.6505C361.089 72.7123 349.472 76.5271 337.771 77.7497ZM346.63 61.8248C343.135 61.8248 339.589 64.9099 338.175 70.4337C344.108 69.7936 349.472 68.2383 349.555 64.3402C349.632 62.7145 348.499 61.8248 346.63 61.8248Z" fill="#00B56A"/>
<path d="M369.295 52.3976H381.456L380.771 57.8382H380.938C384.023 53.7802 387.927 51.668 392.312 51.668L390.609 65.1542C384.759 63.042 379.882 67.4328 378.416 76.8547L376.63 92.1331H364.469L369.295 52.3976Z" fill="#00B56A"/>
</g>
<defs>
<linearGradient id="paint0_linear_471_5" x1="10.0399" y1="-16.0395" x2="124.926" y2="98.8463" gradientUnits="userSpaceOnUse">
<stop stop-color="#FDC32D"/>
<stop offset="1" stop-color="#EB6617"/>
</linearGradient>
<linearGradient id="paint1_linear_471_5" x1="12.4274" y1="12.4109" x2="127.313" y2="127.297" gradientUnits="userSpaceOnUse">
<stop stop-color="#FDC32D"/>
<stop offset="0.56" stop-color="#F28C20"/>
<stop offset="1" stop-color="#EB6617"/>
</linearGradient>
<linearGradient id="paint2_linear_471_5" x1="11.9633" y1="12.86" x2="126.849" y2="127.746" gradientUnits="userSpaceOnUse">
<stop stop-color="#F2FF36"/>
<stop offset="0.72" stop-color="#00B56A"/>
</linearGradient>
<clipPath id="clip0_471_5">
<rect width="392.291" height="120" fill="white"/>
</clipPath>
</defs>
</svg>
