<svg width="52" height="27" viewBox="0 0 52 27" fill="none" xmlns="http://www.w3.org/2000/svg">
<path d="M3.74457 1H48.2464C49.7591 1 50.9909 1.88543 50.9909 2.9727V13.5003H1V2.9727C1 1.88543 2.23188 1 3.74457 1Z" fill="white"/>
<path d="M1 13.5H51V24.0276C51 25.1148 49.7681 26.0003 48.2554 26.0003H3.74457C2.23188 26.0003 1 25.1083 1 24.0276V13.5Z" fill="#D52B1E"/>
<path d="M1 9.33203H51V17.6655H1V9.33203Z" fill="#0039A6"/>
<path d="M3.74457 1H48.2464C49.7591 1 50.9909 1.88543 50.9909 2.9727V24.0213C50.9909 25.1086 49.7591 25.994 48.2464 25.994H3.74457C2.23188 25.994 1 25.1021 1 24.0213V2.9727C1 1.88543 2.23188 1 3.74457 1Z" stroke="#CCCCCC" stroke-width="0.1199" stroke-miterlimit="2.6131"/>
</svg>
