<svg width="50" height="25" viewBox="0 0 50 25" fill="none" xmlns="http://www.w3.org/2000/svg">
<g clip-path="url(#clip0_553_237)">
<path d="M0 0H50V25H0V0Z" fill="#1EB53A"/>
<path d="M0 0H50V12.5H0V0Z" fill="#0099B5"/>
<path d="M0 8H50V17H0V8Z" fill="#CE1126"/>
<path d="M0 8.5H50V16.5H0V8.5Z" fill="white"/>
<path d="M7 7C8.65685 7 10 5.65685 10 4C10 2.34315 8.65685 1 7 1C5.34315 1 4 2.34315 4 4C4 5.65685 5.34315 7 7 7Z" fill="white"/>
<path d="M8 7C9.65685 7 11 5.65685 11 4C11 2.34315 9.65685 1 8 1C6.34315 1 5 2.34315 5 4C5 5.65685 6.34315 7 8 7Z" fill="#0099B5"/>
<path d="M13.6016 5.80078L13.4162 6.37142L13.7015 6.46412" fill="white"/>
<path d="M13.6016 5.80078L13.787 6.37142L13.5017 6.46412" fill="white"/>
<path d="M14.1641 6.21484H13.5641V6.51484" fill="white"/>
<path d="M14.1641 6.21484L13.6787 6.56751L13.5023 6.32481" fill="white"/>
<path d="M13.0234 6.21875L13.5088 6.57142L13.6852 6.32872" fill="white"/>
<path d="M13.0234 6.21875H13.6234V6.51875" fill="white"/>
<path d="M13.9453 6.88672L13.7599 6.31608L13.4746 6.40879" fill="white"/>
<path d="M13.9453 6.88672L13.4599 6.53405L13.6362 6.29134" fill="white"/>
<path d="M13.2422 6.88672L13.7276 6.53405L13.5513 6.29134" fill="white"/>
<path d="M13.2422 6.88672L13.4276 6.31608L13.7129 6.40879" fill="white"/>
<path d="M13.6016 3.39844L13.4162 3.96907L13.7015 4.06178" fill="white"/>
<path d="M13.6016 3.39844L13.787 3.96907L13.5017 4.06178" fill="white"/>
<path d="M14.1641 3.8125H13.5641V4.1125" fill="white"/>
<path d="M14.1641 3.8125L13.6787 4.16517L13.5023 3.92247" fill="white"/>
<path d="M13.0234 3.81641L13.5088 4.16908L13.6852 3.92637" fill="white"/>
<path d="M13.0234 3.81641H13.6234V4.11641" fill="white"/>
<path d="M13.9453 4.48438L13.7599 3.91374L13.4746 4.00645" fill="white"/>
<path d="M13.9453 4.48438L13.4599 4.1317L13.6362 3.889" fill="white"/>
<path d="M13.2422 4.48438L13.7276 4.1317L13.5513 3.889" fill="white"/>
<path d="M13.2422 4.48438L13.4276 3.91374L13.7129 4.00645" fill="white"/>
<path d="M13.6016 1L13.4162 1.57063L13.7015 1.66334" fill="white"/>
<path d="M13.6016 1L13.787 1.57063L13.5017 1.66334" fill="white"/>
<path d="M14.1641 1.41406H13.5641V1.71406" fill="white"/>
<path d="M14.1641 1.41406L13.6787 1.76673L13.5023 1.52403" fill="white"/>
<path d="M13.0234 1.41797L13.5088 1.77064L13.6852 1.52793" fill="white"/>
<path d="M13.0234 1.41797H13.6234V1.71797" fill="white"/>
<path d="M13.9453 2.08594L13.7599 1.5153L13.4746 1.60801" fill="white"/>
<path d="M13.9453 2.08594L13.4599 1.73327L13.6362 1.49056" fill="white"/>
<path d="M13.2422 2.08594L13.7276 1.73327L13.5513 1.49056" fill="white"/>
<path d="M13.2422 2.08594L13.4276 1.5153L13.7129 1.60801" fill="white"/>
<path d="M16.0078 5.80078L15.8224 6.37142L16.1077 6.46412" fill="white"/>
<path d="M16.0078 5.80078L16.1932 6.37142L15.9079 6.46412" fill="white"/>
<path d="M16.5703 6.21484H15.9703V6.51484" fill="white"/>
<path d="M16.5703 6.21484L16.0849 6.56751L15.9086 6.32481" fill="white"/>
<path d="M15.4297 6.21875L15.9151 6.57142L16.0914 6.32872" fill="white"/>
<path d="M15.4297 6.21875H16.0297V6.51875" fill="white"/>
<path d="M16.3516 6.88672L16.1662 6.31608L15.8808 6.40879" fill="white"/>
<path d="M16.3516 6.88672L15.8662 6.53405L16.0425 6.29134" fill="white"/>
<path d="M15.6484 6.88672L16.1338 6.53405L15.9575 6.29134" fill="white"/>
<path d="M15.6484 6.88672L15.8338 6.31608L16.1192 6.40879" fill="white"/>
<path d="M16.0078 3.39844L15.8224 3.96907L16.1077 4.06178" fill="white"/>
<path d="M16.0078 3.39844L16.1932 3.96907L15.9079 4.06178" fill="white"/>
<path d="M16.5703 3.8125H15.9703V4.1125" fill="white"/>
<path d="M16.5703 3.8125L16.0849 4.16517L15.9086 3.92247" fill="white"/>
<path d="M15.4297 3.81641L15.9151 4.16908L16.0914 3.92637" fill="white"/>
<path d="M15.4297 3.81641H16.0297V4.11641" fill="white"/>
<path d="M16.3516 4.48438L16.1662 3.91374L15.8808 4.00645" fill="white"/>
<path d="M16.3516 4.48438L15.8662 4.1317L16.0425 3.889" fill="white"/>
<path d="M15.6484 4.48438L16.1338 4.1317L15.9575 3.889" fill="white"/>
<path d="M15.6484 4.48438L15.8338 3.91374L16.1192 4.00645" fill="white"/>
<path d="M16.0078 1L15.8224 1.57063L16.1077 1.66334" fill="white"/>
<path d="M16.0078 1L16.1932 1.57063L15.9079 1.66334" fill="white"/>
<path d="M16.5703 1.41406H15.9703V1.71406" fill="white"/>
<path d="M16.5703 1.41406L16.0849 1.76673L15.9086 1.52403" fill="white"/>
<path d="M15.4297 1.41797L15.9151 1.77064L16.0914 1.52793" fill="white"/>
<path d="M15.4297 1.41797H16.0297V1.71797" fill="white"/>
<path d="M16.3516 2.08594L16.1662 1.5153L15.8808 1.60801" fill="white"/>
<path d="M16.3516 2.08594L15.8662 1.73327L16.0425 1.49056" fill="white"/>
<path d="M15.6484 2.08594L16.1338 1.73327L15.9575 1.49056" fill="white"/>
<path d="M15.6484 2.08594L15.8338 1.5153L16.1192 1.60801" fill="white"/>
<path d="M18.4062 5.80078L18.2208 6.37142L18.5062 6.46412" fill="white"/>
<path d="M18.4062 5.80078L18.5917 6.37142L18.3063 6.46412" fill="white"/>
<path d="M18.9688 6.21484H18.3687V6.51484" fill="white"/>
<path d="M18.9688 6.21484L18.4833 6.56751L18.307 6.32481" fill="white"/>
<path d="M17.8281 6.21875L18.3135 6.57142L18.4899 6.32872" fill="white"/>
<path d="M17.8281 6.21875H18.4281V6.51875" fill="white"/>
<path d="M18.75 6.88672L18.5646 6.31608L18.2793 6.40879" fill="white"/>
<path d="M18.75 6.88672L18.2646 6.53405L18.4409 6.29134" fill="white"/>
<path d="M18.0469 6.88672L18.5323 6.53405L18.3559 6.29134" fill="white"/>
<path d="M18.0469 6.88672L18.2323 6.31608L18.5176 6.40879" fill="white"/>
<path d="M18.4062 3.39844L18.2208 3.96907L18.5062 4.06178" fill="white"/>
<path d="M18.4062 3.39844L18.5917 3.96907L18.3063 4.06178" fill="white"/>
<path d="M18.9688 3.8125H18.3687V4.1125" fill="white"/>
<path d="M18.9688 3.8125L18.4833 4.16517L18.307 3.92247" fill="white"/>
<path d="M17.8281 3.81641L18.3135 4.16908L18.4899 3.92637" fill="white"/>
<path d="M17.8281 3.81641H18.4281V4.11641" fill="white"/>
<path d="M18.75 4.48438L18.5646 3.91374L18.2793 4.00645" fill="white"/>
<path d="M18.75 4.48438L18.2646 4.1317L18.4409 3.889" fill="white"/>
<path d="M18.0469 4.48438L18.5323 4.1317L18.3559 3.889" fill="white"/>
<path d="M18.0469 4.48438L18.2323 3.91374L18.5176 4.00645" fill="white"/>
<path d="M18.4062 1L18.2208 1.57063L18.5062 1.66334" fill="white"/>
<path d="M18.4062 1L18.5917 1.57063L18.3063 1.66334" fill="white"/>
<path d="M18.9688 1.41406H18.3687V1.71406" fill="white"/>
<path d="M18.9688 1.41406L18.4833 1.76673L18.307 1.52403" fill="white"/>
<path d="M17.8281 1.41797L18.3135 1.77064L18.4899 1.52793" fill="white"/>
<path d="M17.8281 1.41797H18.4281V1.71797" fill="white"/>
<path d="M18.75 2.08594L18.5646 1.5153L18.2793 1.60801" fill="white"/>
<path d="M18.75 2.08594L18.2646 1.73327L18.4409 1.49056" fill="white"/>
<path d="M18.0469 2.08594L18.5323 1.73327L18.3559 1.49056" fill="white"/>
<path d="M18.0469 2.08594L18.2323 1.5153L18.5176 1.60801" fill="white"/>
<path d="M8.80469 5.80078L8.61928 6.37142L8.90459 6.46412" fill="white"/>
<path d="M8.80469 5.80078L8.9901 6.37142L8.70478 6.46412" fill="white"/>
<path d="M9.36719 6.21484H8.76719V6.51484" fill="white"/>
<path d="M9.36719 6.21484L8.88178 6.56751L8.70544 6.32481" fill="white"/>
<path d="M8.22656 6.21875L8.71197 6.57142L8.88831 6.32872" fill="white"/>
<path d="M8.22656 6.21875H8.82656V6.51875" fill="white"/>
<path d="M9.14844 6.88672L8.96303 6.31608L8.67771 6.40879" fill="white"/>
<path d="M9.14844 6.88672L8.66303 6.53405L8.83936 6.29134" fill="white"/>
<path d="M8.44531 6.88672L8.93072 6.53405L8.75439 6.29134" fill="white"/>
<path d="M8.44531 6.88672L8.63072 6.31608L8.91604 6.40879" fill="white"/>
<path d="M11.2031 5.80078L11.0177 6.37142L11.303 6.46412" fill="white"/>
<path d="M11.2031 5.80078L11.3885 6.37142L11.1032 6.46412" fill="white"/>
<path d="M11.7656 6.21484H11.1656V6.51484" fill="white"/>
<path d="M11.7656 6.21484L11.2802 6.56751L11.1039 6.32481" fill="white"/>
<path d="M10.625 6.21875L11.1104 6.57142L11.2867 6.32872" fill="white"/>
<path d="M10.625 6.21875H11.225V6.51875" fill="white"/>
<path d="M11.5469 6.88672L11.3615 6.31608L11.0761 6.40879" fill="white"/>
<path d="M11.5469 6.88672L11.0615 6.53405L11.2378 6.29134" fill="white"/>
<path d="M10.8438 6.88672L11.3292 6.53405L11.1528 6.29134" fill="white"/>
<path d="M10.8438 6.88672L11.0292 6.31608L11.3145 6.40879" fill="white"/>
<path d="M11.2031 3.39844L11.0177 3.96907L11.303 4.06178" fill="white"/>
<path d="M11.2031 3.39844L11.3885 3.96907L11.1032 4.06178" fill="white"/>
<path d="M11.7656 3.8125H11.1656V4.1125" fill="white"/>
<path d="M11.7656 3.8125L11.2802 4.16517L11.1039 3.92247" fill="white"/>
<path d="M10.625 3.81641L11.1104 4.16908L11.2867 3.92637" fill="white"/>
<path d="M10.625 3.81641H11.225V4.11641" fill="white"/>
<path d="M11.5469 4.48438L11.3615 3.91374L11.0761 4.00645" fill="white"/>
<path d="M11.5469 4.48438L11.0615 4.1317L11.2378 3.889" fill="white"/>
<path d="M10.8438 4.48438L11.3292 4.1317L11.1528 3.889" fill="white"/>
<path d="M10.8438 4.48438L11.0292 3.91374L11.3145 4.00645" fill="white"/>
</g>
<rect x="0.06" y="0.06" width="49.88" height="24.88" rx="2.44" stroke="#CCCCCC" stroke-width="0.12"/>
<defs>
<clipPath id="clip0_553_237">
<rect width="50" height="25" rx="2.5" fill="white"/>
</clipPath>
</defs>
</svg>
