<svg width="64" height="64" viewBox="0 0 64 64" fill="none" xmlns="http://www.w3.org/2000/svg">
<path d="M10.3125 1.3125L10 1.6125V5.8125V10H11H12V6.5V3H15.5H19V2V1H14.8125H10.6125L10.3125 1.3125Z" fill="#575757"/>
<path d="M37 2V3H40.5H44V6.5V10H45H46V5.8125V1.6125L45.6875 1.3125L45.3875 1H41.1875H37V2Z" fill="#575757"/>
<path d="M25.8125 4.13749C22.4875 4.61249 19.0125 6.51249 16.925 9C15.5875 10.575 15 11.975 15 13.5625C15 14.725 15.275 15.55 16.4375 17.875L17.5 20H17.05C16.2125 20 15.5875 20.275 14.9375 20.9375C13.6625 22.2 13.6625 23.8 14.9375 25.0625C15.6375 25.775 16.2125 26 17.3 26H18V26.7125C18 27.7625 18.4125 29.6 18.9 30.7125C19.55 32.2 20.1625 33.0625 21.65 34.5125L23 35.8375V37.5375V39.2375L22.5375 39.3625C17.175 40.775 12.45 42.075 11.8125 42.3125C7.8125 43.8125 4.6375 46.7125 2.7375 50.5625C1.375 53.3625 1 55.2625 1 59.5375V62.3875L1.3125 62.6875L1.6125 63H28H54.3875L54.7125 62.675L55.025 62.3625L54.9625 58.9625C54.9125 56.4375 54.85 55.325 54.6875 54.625C53.4 48.8125 49.575 44.3375 44.1625 42.3C43.525 42.0625 33.2875 39.25 33.05 39.25C33.025 39.25 33 38.475 33 37.525V35.8125L34.1875 34.7125C34.8375 34.1 35.625 33.25 35.9375 32.825C37.1 31.1875 37.825 29.15 37.9625 27.0875L38.0375 26H38.75C39.8125 26 40.5375 25.7 41.1625 25C42.2875 23.75 42.2875 22.25 41.1625 21C40.6 20.375 39.825 20 39.1 20H38.7375L39.1875 19.2125C40.675 16.625 41.075 15.45 40.9625 13.875C40.825 11.875 39.925 10.1625 38 8.25C34.8125 5.04999 30.2125 3.49999 25.8125 4.13749ZM30.775 6.36249C33.0125 6.94999 34.8875 8 36.5125 9.625C37.1 10.2125 37.8 11 38.05 11.375C38.575 12.1625 39 13.4125 39 14.175C39 14.95 38.675 16.0625 38.2 16.9125L37.775 17.65L37.575 17.025C37.275 16.15 36.5375 15.0625 35.7375 14.3C34.9125 13.525 32.4 12 31.95 12C31.725 12 31.3375 12.2625 30.6375 12.9125C29.125 14.3 27.4625 14.9875 25.5875 15C23.5 15 21.675 15.7375 19.275 17.525C18.95 17.775 18.7 17.875 18.625 17.8C18.5625 17.7375 18.1875 16.9875 17.7875 16.125C17.0875 14.6 17.0625 14.5375 17.0625 13.5C17.0625 12.05 17.425 11.3375 18.9375 9.8C20.925 7.775 23.2625 6.57499 26.0625 6.11249C27.1 5.94999 29.7 6.08749 30.775 6.36249ZM33.725 15.225C34.525 15.75 35.1375 16.4625 35.5875 17.45L35.9375 18.1875L35.975 22.675C36.0125 26.4375 35.9875 27.325 35.8125 28.175C35.5625 29.3875 34.875 30.9125 34.1 31.9375C33.475 32.75 31.075 34.8625 30.1625 35.4C29.325 35.875 28.1875 36.075 27.2125 35.875C26.1375 35.6625 25.6875 35.4 24.2125 34.1375C21.875 32.125 21.0375 31 20.3625 28.9375C20.0875 28.1125 20.075 27.85 20.025 23.7875L19.9875 19.5125L21.0125 18.75C21.5875 18.325 22.2625 17.875 22.5375 17.7375C23.275 17.3625 24.825 17 25.7125 17C27.6125 17 29.9375 16.15 31.4375 14.9L32.1875 14.275L32.625 14.5375C32.8625 14.675 33.3625 14.9875 33.725 15.225ZM18 23V24H17.3125C16.475 24 16 23.6375 16 23C16 22.3625 16.475 22 17.3125 22H18V23ZM39.6875 22.3125C39.8875 22.5 40 22.7625 40 23C40 23.6375 39.525 24 38.6875 24H38V23V22H38.6875C39.2625 22 39.4375 22.05 39.6875 22.3125ZM28 37.925C29.1125 37.925 29.45 37.875 30.1625 37.6L31 37.275V38.325V39.375L29.5 40.125L28 40.875L26.5 40.125L25 39.375V38.325V37.275L25.85 37.6C26.55 37.875 26.8875 37.925 28 37.925ZM23.725 41.3375C23.6875 41.4625 23.5 42.3875 23.3125 43.4L22.95 45.2375L23.95 46.7375L24.95 48.25L24.05 54.6C23.5375 58.0875 23.1375 60.95 23.125 60.9625C23.125 60.9875 20.85 61 18.0625 61H13V56.5V52H12H11V56.5V61H6.9875H2.975L3.0375 58.3375C3.1 55.425 3.2875 54.3875 4.1125 52.3125C5.525 48.8125 8.45 45.8625 12.025 44.375C12.775 44.0625 23.1625 41.175 23.675 41.1375C23.725 41.125 23.75 41.225 23.725 41.3375ZM37.7375 42.5625C41.075 43.45 43.55 44.1875 44.2375 44.4875C47.2625 45.7875 49.9625 48.35 51.4125 51.3C52.575 53.65 53 55.6875 53 58.9V61H49H45V56.5V52H44H43V56.5V61H37.9375C35.15 61 32.875 60.9875 32.875 60.9625C32.8625 60.95 32.4625 58.0875 31.95 54.6L31.05 48.25L32.05 46.7375L33.05 45.2375L32.6875 43.4C32.5 42.3875 32.3125 41.4625 32.275 41.3375C32.25 41.225 32.25 41.125 32.2875 41.125C32.325 41.125 34.775 41.775 37.7375 42.5625ZM26.75 42.5C27.3 42.775 27.8625 43 28 43C28.1375 43 28.7125 42.775 29.2625 42.4875C29.825 42.2125 30.3 42.0125 30.3375 42.05C30.425 42.1375 30.8625 44.2375 30.875 44.6C30.875 44.75 30.5625 45.35 30.1625 45.9375L29.4625 47H28H26.5375L25.8375 45.9375C25.4375 45.35 25.125 44.7625 25.125 44.6375C25.125 44.5 25.2125 43.975 25.3125 43.475C25.5875 42.1625 25.625 42 25.6875 42C25.725 42 26.2 42.225 26.75 42.5ZM29.175 49.3375C29.2125 49.5375 29.5875 52.1 30 55.0625C30.4125 58.025 30.7875 60.5625 30.8125 60.725L30.875 61H28H25.125L25.1875 60.7125C25.2125 60.5625 25.5875 58.025 26 55.0625C26.4125 52.1 26.7875 49.5375 26.825 49.3375L26.9 49H28H29.1L29.175 49.3375Z" fill="#575757"/>
<path d="M52.4359 10.1266C50.6109 10.4641 49.0484 11.3016 47.6859 12.6766C46.5359 13.8391 45.8859 14.8891 45.4109 16.3141C45.1234 17.2016 45.0859 17.5141 45.0859 19.0016C45.0859 20.4891 45.1234 20.8016 45.4109 21.6891C45.8859 23.1266 46.5484 24.1766 47.6859 25.3141C48.8234 26.4516 49.8734 27.1141 51.3109 27.5891C52.1984 27.8766 52.5109 27.9141 53.9984 27.9141C55.4859 27.9141 55.7984 27.8766 56.6859 27.5891C58.1234 27.1141 59.1734 26.4516 60.3109 25.3141C61.4484 24.1766 62.1109 23.1266 62.5859 21.6891C62.8734 20.8016 62.9109 20.4891 62.9109 19.0016C62.9109 17.5141 62.8734 17.2016 62.5859 16.3141C62.1109 14.8766 61.4484 13.8266 60.3109 12.6891C58.5734 10.9391 56.7609 10.1516 54.3734 10.0641C53.6484 10.0391 52.7859 10.0641 52.4359 10.1266ZM55.3234 12.1391C57.7484 12.5766 59.8484 14.4766 60.6984 17.0016C61.0234 17.9516 61.0234 20.0516 60.6984 21.0016C59.9359 23.2891 58.2984 24.9266 55.9984 25.7016C55.0484 26.0266 52.9484 26.0266 51.9984 25.7016C48.6109 24.5641 46.5984 21.4016 47.0984 17.9891C47.4234 15.7391 48.8609 13.7766 50.9109 12.7641C52.3859 12.0391 53.7234 11.8516 55.3234 12.1391Z" fill="#575757"/>
<path d="M55.1779 18.3894L52.1529 21.4144L51.5154 20.4519C51.1654 19.9269 50.8404 19.5019 50.8029 19.5019C50.7654 19.5019 50.4029 19.7269 49.9904 20.0144C49.5154 20.3394 49.2529 20.5894 49.3029 20.6894C49.4654 21.1144 51.3779 23.8519 51.5654 23.9269C52.2279 24.1769 52.3279 24.1019 56.0279 20.4144C58.0029 18.4394 59.6279 16.7644 59.6279 16.6894C59.6279 16.5269 58.4779 15.3769 58.3154 15.3769C58.2404 15.3769 56.8279 16.7394 55.1779 18.3894Z" fill="#575757"/>
<path d="M10 32.1875V36.3875L10.3125 36.6875L10.6125 37H14.8125H19V36V35H15.5H12V31.5V28H11H10V32.1875Z" fill="#575757"/>
<path d="M44 31.5V35H40.5H37V36V37H41.1875H45.3875L45.6875 36.6875L46 36.3875V32.1875V28H45H44V31.5Z" fill="#575757"/>
</svg>
