<svg width="64" height="64" viewBox="0 0 64 64" fill="none" xmlns="http://www.w3.org/2000/svg">
<path d="M0.410154 2.12126L0 2.51501V18.7735V35.032L0.410154 35.4258L0.803902 35.8359H13.1249H25.446L25.8397 35.4258C26.3811 34.9008 26.3811 34.1461 25.8397 33.6211L25.446 33.211H18.9163H12.3867L12.1078 31.9805C11.4515 29.0602 9.5648 26.5008 6.95621 24.9258C5.95544 24.3188 3.7242 23.5313 3.01873 23.5313H2.62499V18.8884V14.2618L3.74061 14.0485C5.11872 13.786 7.1859 12.7853 8.35074 11.8337C10.2046 10.2915 11.5499 8.15873 12.0749 5.89468C12.239 5.25484 12.3703 4.64781 12.4031 4.53297C12.4523 4.38531 15.8484 4.3361 28.7108 4.3361H44.9529V4.76266C44.9529 5.51734 45.4615 7.17436 46.0521 8.35561C47.2005 10.6853 48.956 12.4407 51.2201 13.5564C52.4013 14.147 54.0911 14.672 54.7802 14.672C55.1083 14.672 55.1247 14.754 55.1247 16.6407C55.1247 18.5274 55.1411 18.6423 55.5349 19.0196C55.781 19.2821 56.1255 19.4298 56.4372 19.4298C56.7489 19.4298 57.0935 19.2821 57.3396 19.0196L57.7497 18.6259V10.5704V2.51501L57.3396 2.12126L56.9458 1.71111H28.8749H0.803902L0.410154 2.12126ZM9.61401 5.02516C9.41714 6.32124 8.44918 8.04389 7.31715 9.19232C6.21794 10.2915 4.41326 11.3087 3.23201 11.5056L2.62499 11.604V7.96186V4.3361H6.16872H9.72886L9.61401 5.02516ZM55.1247 8.19155C55.1247 12.6048 55.256 12.2931 53.5661 11.7189C51.6958 11.079 50.1208 9.88138 48.9888 8.20795C48.3818 7.33842 47.5943 5.35328 47.5779 4.69703V4.3361H51.3513H55.1247V8.19155ZM5.02029 26.8946C6.44762 27.5836 7.49762 28.486 8.35074 29.7821C8.90855 30.6188 9.67964 32.5219 9.67964 33.0633C9.67964 33.1453 8.12105 33.211 6.15231 33.211H2.62499V29.6672V26.1235L3.24842 26.2219C3.57654 26.2875 4.38045 26.5829 5.02029 26.8946Z" fill="#575757"/>
<path d="M26.9451 9.18991C25.2061 9.64929 23.7788 10.6501 22.7288 12.1266C20.235 15.6047 19.8413 19.8539 21.6624 23.6109C22.3842 25.1203 23.7459 26.8594 24.4678 27.2367C25.4194 27.7125 26.4202 27.1383 26.4202 26.1211C26.4202 25.8094 26.1412 25.3664 25.5014 24.6445C23.0569 21.9211 22.4827 18.2789 24.0084 15.1289C24.7467 13.554 25.5506 12.668 26.7155 12.0938C28.6514 11.1422 31.0139 11.6344 32.4904 13.3079C33.3107 14.2594 34.0326 15.7524 34.2951 17.0485C34.5412 18.3446 34.7381 18.7219 35.3123 18.9188C36.3787 19.2961 37.1826 18.4594 36.9857 17.1797C36.6576 14.8336 35.2795 12.1266 33.7537 10.7977C31.8998 9.20632 29.242 8.56648 26.9451 9.18991Z" fill="#575757"/>
<path d="M41.9999 20.9874C37.7671 21.5124 33.7476 22.9069 31.3851 24.6952C30.3023 25.4991 29.2687 26.7951 29.0391 27.5991C28.9406 27.9928 28.875 32.8818 28.875 41.4459C28.875 54.1278 28.8914 54.7349 29.1867 55.5223C30.3187 58.5083 34.8468 60.8872 41.032 61.7731C43.296 62.1012 49.0054 62.0684 51.2694 61.7075C57.3397 60.7559 61.5725 58.4755 62.6717 55.5552C62.9834 54.7184 62.9998 54.2755 62.9998 41.4294C62.9998 26.7295 63.049 27.4186 61.917 26.0405C58.8163 22.2506 49.9733 20.0194 41.9999 20.9874ZM49.2351 23.5467C52.5327 23.8749 54.9608 24.4983 57.2085 25.5975C58.7998 26.385 60.0959 27.5334 60.3092 28.3701C60.867 30.6178 56.7327 33.0295 50.6952 33.9646C48.3655 34.342 43.5093 34.342 41.1796 33.9646C36.2086 33.1936 32.189 31.274 31.6476 29.4365C31.3851 28.567 31.5492 28.0584 32.4187 27.1397C34.9125 24.4819 42.4921 22.8577 49.2351 23.5467ZM32.5664 33.9482C35.8312 35.9006 40.2281 36.8685 45.9374 36.8685C51.6468 36.8685 56.0436 35.9006 59.3084 33.9482C59.8334 33.6365 60.2764 33.374 60.3092 33.374C60.342 33.374 60.3748 35.2607 60.3748 37.574C60.3748 42.3974 60.342 42.5123 59.0295 43.5623C57.5202 44.7599 55.0428 45.7115 51.7944 46.3677C50.1866 46.6958 49.4647 46.745 45.9374 46.745C42.4101 46.745 41.6882 46.6958 40.0804 46.3677C36.832 45.7115 34.7156 44.8912 33.0094 43.6443C31.5164 42.5451 31.5 42.4794 31.5 37.574C31.5 35.2607 31.5328 33.374 31.5656 33.374C31.5984 33.374 32.0414 33.6365 32.5664 33.9482ZM34.7976 47.631C41.9507 50.4857 53.8452 49.9443 59.3577 46.499L60.3748 45.8591V50.1247C60.3748 54.8661 60.3748 54.8825 59.2592 55.8833C56.3881 58.4919 49.1366 59.9684 42.6726 59.2958C38.1773 58.82 34.289 57.5075 32.5992 55.8833C31.5 54.8333 31.5 54.8497 31.5 50.1247V45.8591L32.5336 46.499C33.0914 46.8435 34.1086 47.3521 34.7976 47.631Z" fill="#575757"/>
<path d="M0.410154 41.4961C0.147656 41.7422 0 42.0867 0 42.3984C0 42.7102 0.147656 43.0547 0.410154 43.3008L0.803902 43.7109H13.1249H25.446L25.8397 43.3008C26.3811 42.7758 26.3811 42.0211 25.8397 41.4961L25.446 41.086H13.1249H0.803902L0.410154 41.4961Z" fill="#575757"/>
<path d="M0.410154 49.3711C0.147656 49.6172 0 49.9617 0 50.2734C0 50.5852 0.147656 50.9297 0.410154 51.1758L0.803902 51.5859H13.1249H25.446L25.8397 51.1758C26.3811 50.6508 26.3811 49.8961 25.8397 49.3711L25.446 48.961H13.1249H0.803902L0.410154 49.3711Z" fill="#575757"/>
</svg>
