<svg width="18" height="21" viewBox="0 0 18 21" fill="none" xmlns="http://www.w3.org/2000/svg">
<path fill-rule="evenodd" clip-rule="evenodd" d="M0.914062 2.63095C0.914062 1.31599 1.98005 0.25 3.29502 0.25H10.9141C11.0404 0.25 11.1615 0.30017 11.2508 0.389473L16.9651 6.10376C17.0544 6.19306 17.1045 6.31418 17.1045 6.44048V17.869C17.1045 19.184 16.0386 20.25 14.7236 20.25H3.29502C1.98005 20.25 0.914062 19.184 0.914062 17.869V2.63095ZM3.29502 1.20238C2.50604 1.20238 1.86644 1.84197 1.86644 2.63095V17.869C1.86644 18.658 2.50604 19.2976 3.29502 19.2976H14.7236C15.5126 19.2976 16.1522 18.658 16.1522 17.869V6.63772L10.7168 1.20238H3.29502Z" fill="#C7CAD2"/>
<path fill-rule="evenodd" clip-rule="evenodd" d="M10.9141 0.25C11.1771 0.25 11.3903 0.463198 11.3903 0.726191V5.96429H16.6283C16.8913 5.96429 17.1045 6.17748 17.1045 6.44048C17.1045 6.70347 16.8913 6.91667 16.6283 6.91667H10.9141C10.6511 6.91667 10.4379 6.70347 10.4379 6.44048V0.726191C10.4379 0.463198 10.6511 0.25 10.9141 0.25Z" fill="#C7CAD2"/>
<path fill-rule="evenodd" clip-rule="evenodd" d="M4.72359 11.2024C4.72359 10.9394 4.93678 10.7262 5.19978 10.7262H12.8188C13.0818 10.7262 13.295 10.9394 13.295 11.2024C13.295 11.4654 13.0818 11.6786 12.8188 11.6786H5.19978C4.93678 11.6786 4.72359 11.4654 4.72359 11.2024Z" fill="#C7CAD2"/>
<path fill-rule="evenodd" clip-rule="evenodd" d="M4.72359 15.0119C4.72359 14.7489 4.93678 14.5357 5.19978 14.5357H12.8188C13.0818 14.5357 13.295 14.7489 13.295 15.0119C13.295 15.2749 13.0818 15.4881 12.8188 15.4881H5.19978C4.93678 15.4881 4.72359 15.2749 4.72359 15.0119Z" fill="#C7CAD2"/>
<path fill-rule="evenodd" clip-rule="evenodd" d="M4.72359 7.39286C4.72359 7.12986 4.93678 6.91667 5.19978 6.91667H7.10454C7.36753 6.91667 7.58073 7.12986 7.58073 7.39286C7.58073 7.65585 7.36753 7.86905 7.10454 7.86905H5.19978C4.93678 7.86905 4.72359 7.65585 4.72359 7.39286Z" fill="#C7CAD2"/>
</svg>
