<svg width="25" height="30" viewBox="0 0 25 30" fill="none" xmlns="http://www.w3.org/2000/svg">
<path fill-rule="evenodd" clip-rule="evenodd" d="M12.5 1.30435C6.32313 1.30435 1.31579 6.26818 1.31579 12.3914C1.31579 16.6945 4.1222 20.7746 7.05655 23.8451C8.51027 25.3662 9.96623 26.6093 11.0595 27.4723C11.6056 27.9034 12.0599 28.2386 12.3764 28.4651C12.4203 28.4966 12.4615 28.5259 12.5 28.5531C12.5385 28.5259 12.5797 28.4966 12.6236 28.4651C12.9401 28.2386 13.3944 27.9034 13.9405 27.4723C15.0338 26.6093 16.4897 25.3662 17.9435 23.8451C20.8778 20.7746 23.6842 16.6945 23.6842 12.3914C23.6842 6.26818 18.6769 1.30435 12.5 1.30435ZM12.5 29.348C12.1351 29.8906 12.1346 29.8903 12.1346 29.8903L12.1318 29.8884L12.1242 29.8834L12.0964 29.8647C12.0724 29.8486 12.0375 29.8249 11.9924 29.794C11.9023 29.7321 11.7716 29.6411 11.606 29.5226C11.2748 29.2855 10.8039 28.9379 10.2399 28.4927C9.11272 27.6029 7.60815 26.3188 6.10135 24.7421C3.11465 21.6169 0 17.2187 0 12.3914C1.17641e-07 5.5478 5.59644 0 12.5 0C19.4036 0 25 5.5478 25 12.3914C25 17.2187 21.8854 21.6169 18.8987 24.7421C17.3918 26.3188 15.8873 27.6029 14.7601 28.4927C14.1961 28.9379 13.7252 29.2855 13.394 29.5226C13.2284 29.6411 13.0977 29.7321 13.0076 29.794C12.9625 29.8249 12.9276 29.8486 12.9036 29.8647L12.8758 29.8834L12.8682 29.8884L12.8661 29.8899C12.8661 29.8899 12.8649 29.8906 12.5 29.348ZM12.5 29.348L12.8649 29.8906C12.6439 30.0366 12.3556 30.0364 12.1346 29.8903L12.5 29.348Z" fill="#27B76C"/>
<path fill-rule="evenodd" clip-rule="evenodd" d="M7.89474 12.3914C7.89474 9.87005 9.95658 7.82612 12.5 7.82612C15.0434 7.82612 17.1053 9.87005 17.1053 12.3914C17.1053 14.9127 15.0434 16.9566 12.5 16.9566C9.95658 16.9566 7.89474 14.9127 7.89474 12.3914ZM12.5 9.13048C10.6833 9.13048 9.21053 10.5904 9.21053 12.3914C9.21053 14.1923 10.6833 15.6522 12.5 15.6522C14.3167 15.6522 15.7895 14.1923 15.7895 12.3914C15.7895 10.5904 14.3167 9.13048 12.5 9.13048Z" fill="#27B76C"/>
<path fill-rule="evenodd" clip-rule="evenodd" d="M1.31579 12.3914C1.31579 6.26818 6.32313 1.30435 12.5 1.30435C18.6769 1.30435 23.6842 6.26818 23.6842 12.3914C23.6842 16.6945 20.8778 20.7746 17.9435 23.8451C16.4897 25.3662 15.0338 26.6093 13.9405 27.4723C13.3944 27.9034 12.9401 28.2386 12.6236 28.4651C12.5797 28.4966 12.5385 28.5259 12.5 28.5531C12.4615 28.5259 12.4203 28.4966 12.3764 28.4651C12.0599 28.2386 11.6056 27.9034 11.0595 27.4723C9.96623 26.6093 8.51027 25.3662 7.05655 23.8451C4.1222 20.7746 1.31579 16.6945 1.31579 12.3914ZM7.89474 12.3914C7.89474 9.87005 9.95658 7.82612 12.5 7.82612C15.0434 7.82612 17.1053 9.87005 17.1053 12.3914C17.1053 14.9127 15.0434 16.9566 12.5 16.9566C9.95658 16.9566 7.89474 14.9127 7.89474 12.3914Z" fill="#27B76C"/>
</svg>
