<svg width="64" height="64" viewBox="0 0 64 64" fill="none" xmlns="http://www.w3.org/2000/svg">
<path d="M4.63887 4.325C2.72637 4.8375 1.07637 6.45 0.488873 8.375C0.251373 9.175 0.251373 9.5875 0.276373 32.25L0.313873 55.3125L0.601373 56.025C1.21387 57.5375 2.58887 58.9125 4.10137 59.525L4.81387 59.8125H32.0014H59.1889L59.9139 59.525C61.2514 58.975 62.6889 57.6125 63.2264 56.375C63.7639 55.1125 63.7514 55.8375 63.7514 32C63.7514 7.3 63.7889 8.7625 63.0514 7.2875C62.6264 6.4625 61.5014 5.3 60.6639 4.85C59.2514 4.075 61.1014 4.125 31.9389 4.1375C9.03887 4.1375 5.21387 4.1625 4.63887 4.325ZM59.1764 6.375C60.0389 6.7 60.8514 7.4125 61.3139 8.2625C61.6139 8.825 61.6889 9.125 61.7264 10.025L61.7764 11.125H32.0139H2.25137V10.25C2.25137 8.5125 3.25137 6.975 4.75137 6.4L5.43887 6.1375H31.9639C58.3389 6.125 58.5014 6.125 59.1764 6.375ZM61.7264 33.9625L61.6889 54.9375L61.3889 55.5625C60.9889 56.35 60.2264 57.1125 59.4389 57.5125L58.8139 57.8125L50.8514 57.85L42.8764 57.8875V52.375C42.8764 46.3125 42.8764 46.3625 42.1014 45.675C41.7264 45.35 40.9389 45.0875 36.0389 43.6875L30.3889 42.075L30.0639 41.4C29.8639 41 29.7014 40.4 29.6639 39.9875C29.5889 39.275 29.6014 39.25 30.0014 38.9125C31.6764 37.5125 32.5014 36.475 33.0014 35.125C33.2639 34.4125 33.2889 34.4 33.8264 34.3125C35.6889 34.0375 36.8389 32.5375 36.7264 30.5625C36.6889 30.075 36.5639 29.4875 36.4389 29.25C36.0014 28.3875 35.1264 27.675 34.2389 27.4625C33.9264 27.375 33.9139 27.35 33.8389 26.0375C33.6014 21.9 31.8264 19.25 28.5764 18.1625C27.6139 17.8375 27.4264 17.825 25.1889 17.8125C22.8514 17.8125 22.8014 17.8125 21.7514 18.2C19.3639 19.05 17.8139 20.6375 17.0764 23C16.7639 23.9625 16.5014 25.725 16.5014 26.775C16.5014 27.325 16.4764 27.375 16.1639 27.45C15.1014 27.7125 14.1389 28.5625 13.7514 29.6C12.9764 31.675 14.1889 33.6625 16.5764 34.25C17.0639 34.3625 17.1139 34.425 17.3639 35.1125C17.8514 36.475 19.1139 38.0375 20.2264 38.6875C20.4514 38.825 20.6639 39.0625 20.7139 39.225C20.8389 39.7375 20.6639 40.825 20.3389 41.4625L20.0264 42.075L15.0389 43.4875C12.3014 44.2625 9.71387 45 9.28887 45.1375C8.40137 45.425 7.83887 45.9625 7.63887 46.7125C7.55137 47.0125 7.50137 49.1875 7.50137 52.55V57.9L6.41387 57.85C4.61387 57.7625 3.32637 56.9875 2.61387 55.55L2.31387 54.9375L2.27637 33.9625L2.25137 13H32.0014H61.7514L61.7264 33.9625ZM27.3514 19.9375C29.6014 20.475 31.1514 22.0125 31.6389 24.2125L31.8014 24.9125L31.4264 25.2C30.6139 25.8625 29.4639 25.7625 26.9389 24.8375C23.9139 23.7375 22.7764 23.5625 21.3139 23.95C20.4889 24.1625 19.7139 24.575 19.0639 25.15L18.6264 25.525V25.1875C18.6264 24.6625 18.9889 23.3875 19.3389 22.7125C20.0139 21.375 21.3889 20.325 22.9514 19.95C23.9389 19.7125 26.3514 19.7 27.3514 19.9375ZM26.2764 26.7625C28.2639 27.4375 28.7139 27.55 29.7014 27.6C30.4139 27.6375 31.0264 27.6 31.3139 27.5C31.5639 27.4125 31.7889 27.375 31.8264 27.4125C31.9514 27.525 31.6139 32.725 31.4389 33.4375C30.6764 36.5 28.0514 38.4 24.8764 38.2125C21.9514 38.0375 19.6639 36.15 18.9389 33.325C18.8389 32.9 18.7139 31.675 18.6764 30.5125L18.5889 28.4375L19.1014 27.8125C19.8389 26.8875 20.8389 26.225 21.9389 25.95C22.0764 25.9125 22.5889 25.9125 23.0889 25.9375C23.7764 25.975 24.5014 26.1625 26.2764 26.7625ZM16.6639 30.8375C16.7389 32.425 16.6639 32.55 16.0014 31.9C15.3264 31.2125 15.4264 30.075 16.2139 29.6C16.4014 29.4875 16.5639 29.4 16.5764 29.4125C16.5889 29.425 16.6264 30.075 16.6639 30.8375ZM34.3514 29.7875C34.9639 30.4375 34.9264 31.5 34.2889 32C33.8514 32.3375 33.5764 32.3375 33.6764 31.9625C33.7139 31.8125 33.7514 31.2 33.7514 30.5875C33.7514 29.4 33.8514 29.2625 34.3514 29.7875ZM25.3764 40.1875C26.1014 40.1875 26.8889 40.15 27.1389 40.0875L27.5889 40L27.7389 40.7125C27.8139 41.1125 28.0889 41.875 28.3389 42.4125L28.7889 43.3875L28.2514 43.9375C26.7514 45.4625 24.2139 45.6 22.5014 44.2375C21.5764 43.5125 21.5639 43.425 22.0764 42.425C22.3139 41.95 22.5764 41.2125 22.6639 40.775L22.8139 39.9875L23.4389 40.0875C23.7764 40.1375 24.6514 40.1875 25.3764 40.1875ZM20.3139 44.9125C21.0014 45.775 22.1889 46.575 23.3264 46.9L24.2514 47.175V52.525V57.875H16.8764H9.50137V52.575C9.50137 48.4625 9.53887 47.2375 9.66387 47.1625C9.82637 47.0625 19.4764 44.275 19.6889 44.275C19.7639 44.275 20.0389 44.55 20.3139 44.9125ZM35.7764 45.7L40.8764 47.1625V52.5125V57.875H33.5639H26.2514V52.5125V47.15L27.1264 46.8875C28.2014 46.5625 29.4014 45.75 30.0639 44.9125C30.3389 44.55 30.5889 44.2625 30.6264 44.2625C30.6639 44.25 32.9764 44.9 35.7764 45.7Z" fill="#575757"/>
<path d="M8.50022 7.87387C8.18772 8.18637 8.17522 8.87387 8.47522 9.24887C8.75022 9.59887 9.85022 9.73637 10.5252 9.51137C11.2377 9.27387 11.4502 8.53637 10.9877 7.94887C10.7502 7.64887 10.6627 7.62387 9.73772 7.62387C8.91272 7.62387 8.71272 7.66137 8.50022 7.87387Z" fill="#575757"/>
<path d="M13.0031 7.875C12.6781 8.2 12.6781 8.875 12.9906 9.2625C13.2031 9.525 13.3281 9.5625 14.1906 9.5625C15.0906 9.5625 15.1656 9.5375 15.4531 9.2125C15.8156 8.7875 15.8406 8.3875 15.4906 7.95C15.2531 7.65 15.1656 7.625 14.2406 7.625C13.4156 7.625 13.2156 7.6625 13.0031 7.875Z" fill="#575757"/>
<path d="M17.5031 7.875C17.1781 8.2 17.1781 8.875 17.4906 9.2625C17.7031 9.525 17.8281 9.5625 18.6906 9.5625C19.5906 9.5625 19.6656 9.5375 19.9531 9.2125C20.3156 8.7875 20.3406 8.3875 19.9906 7.95C19.7531 7.65 19.6656 7.625 18.7406 7.625C17.9156 7.625 17.7156 7.6625 17.5031 7.875Z" fill="#575757"/>
<path d="M41.4487 19.8875C41.0362 20.2125 40.9862 20.9875 41.3737 21.375C41.6237 21.625 41.7862 21.625 49.1987 21.625C53.7987 21.625 56.8487 21.575 56.9862 21.5C57.1112 21.4375 57.2862 21.2125 57.3737 21C57.5737 20.525 57.3737 19.975 56.9237 19.7625C56.6987 19.6625 54.4362 19.625 49.1987 19.625C41.8862 19.625 41.7737 19.625 41.4487 19.8875Z" fill="#575757"/>
<path d="M41.4487 28.2624C41.0362 28.5874 40.9862 29.3624 41.3737 29.7499C41.6237 29.9999 41.7862 29.9999 49.2237 29.9999C57.4987 29.9999 57.2487 30.0249 57.4237 29.2999C57.5362 28.8499 57.3112 28.3124 56.9237 28.1374C56.6987 28.0374 54.4362 27.9999 49.1987 27.9999C41.8862 27.9999 41.7737 27.9999 41.4487 28.2624Z" fill="#575757"/>
<path d="M41.4487 36.6374C41.0362 36.9624 40.9862 37.7374 41.3737 38.1249C41.6237 38.3749 41.7862 38.3749 49.2237 38.3749C57.4987 38.3749 57.2487 38.3999 57.4237 37.6749C57.5362 37.2249 57.3112 36.6874 56.9237 36.5124C56.6987 36.4124 54.4362 36.3749 49.1987 36.3749C41.8862 36.3749 41.7737 36.3749 41.4487 36.6374Z" fill="#575757"/>
<path d="M30.675 50.25C30.325 50.3875 30 50.85 30 51.2C30 51.35 30.1125 51.6125 30.2625 51.8L30.5125 52.125H33.5625H36.6125L36.8625 51.8C37.2125 51.3625 37.1875 50.9625 36.825 50.5375L36.525 50.1875L33.725 50.1625C32.2 50.15 30.8125 50.1875 30.675 50.25Z" fill="#575757"/>
</svg>
